<svg viewBox="0 0 16 16"   width="16px"   height="16px"   xmlns="http://www.w3.org/2000/svg"><g fill="none" fill-rule="evenodd"><path d="M0 0H16V16H0z"/><path d="M10.2354,7 L9.4064,8.436 L6.5934,3.564 L4.6104,7 L3.0004,7 L3.0004,9 L5.7644,9 L6.5934,7.564 L9.4064,12.436 L11.3894,9 L13.0004,9 L13.0004,7 L10.2354,7 Z M8,14 C4.691,14 2,11.309 2,8 C2,4.691 4.691,2 8,2 C11.309,2 14,4.691 14,8 C14,11.309 11.309,14 8,14 M8,0 C3.582,0 0,3.582 0,8 C0,12.418 3.582,16 8,16 C12.418,16 16,12.418 16,8 C16,3.582 12.418,0 8,0" fill="#7C878E"/></g></svg>