<svg viewBox="0 0 16 16"   width="16px"   height="16px"   xmlns="http://www.w3.org/2000/svg"><path d="M1,12.6666667 C1,10.4938667 5.664,9.4 8,9.4 C10.336,9.4 15,10.4938667 15,12.6666667 L15,15 L1,15 L1,12.6666667 Z M13,12.7292 C12.622,12.1645333 10.134,11.2666667 8,11.2666667 C5.866,11.2666667 3.378,12.1645333 3,12.7292 L3,13.1333333 L13,13.1333333 L13,12.7292 Z M8,8.46666667 C5.79,8.46666667 4,6.796 4,4.73333333 C4,2.67066667 5.79,1 8,1 C10.21,1 12,2.67066667 12,4.73333333 C12,6.796 10.21,8.46666667 8,8.46666667 Z M8,6.6 C9.1054305,6.6 10,5.76506847 10,4.73333333 C10,3.7015982 9.1054305,2.86666667 8,2.86666667 C6.8945695,2.86666667 6,3.7015982 6,4.73333333 C6,5.76506847 6.8945695,6.6 8,6.6 Z" fill="#7C878E" fill-rule="nonzero"/></svg>