<svg   width="16px"   height="16px"  viewBox="0 0 16 16" fill="none" xmlns="http://www.w3.org/2000/svg">
<path fill-rule="evenodd" clip-rule="evenodd" d="M5.5 7C6.32875 7 7 6.32875 7 5.5C7 4.67125 6.32875 4 5.5 4C4.67125 4 4 4.67125 4 5.5C4 6.32875 4.67125 7 5.5 7ZM5.5 9C3.56625 9 2 7.43375 2 5.5C2 3.56625 3.56625 2 5.5 2C7.43375 2 9 3.56625 9 5.5C9 7.43375 7.43375 9 5.5 9ZM9 12.7835C8.7354 12.481 6.9938 12 5.5 12C4.0062 12 2.2646 12.481 2 12.7835V13H9V12.7835ZM0 12.9167C0 10.9767 3.66457 10 5.5 10C7.33543 10 11 10.9767 11 12.9167V15H0V12.9167Z" fill="#9B9B9B"/>
<path d="M9.36228 7.81102C9.76736 7.13553 10.0002 6.34496 10.0002 5.5C10.0002 4.01718 9.28304 2.70187 8.1766 1.88204C8.79454 1.33322 9.6083 1 10.5002 1C12.434 1 14.0002 2.56625 14.0002 4.5C14.0002 6.43375 12.434 8 10.5002 8C10.1018 8 9.71901 7.93351 9.36228 7.81102Z" fill="#9B9B9B"/>
<path d="M12.0002 12.5C12.0002 10.9307 10.0322 9.88665 8.08496 9.37286C8.95654 9.12449 9.84496 9 10.5002 9C12.3357 9 16.0002 9.97667 16.0002 11.9167V14H12.0002V12.5Z" fill="#9B9B9B"/>
</svg>
